# xmcd CD database file
#
# Track frame offsets:
#	150
#	17270
#	37560
#	55145
#	79600
#	108775
#	126795
#	149810
#	168815
#	187415
#	206255
#	227055
#	248760
#	267835
#	286865
#	307360
#	331875
#	351685
#
# Disc length: 4868 seconds
#
# Revision: 0
# Processed by: cddbd v1.5.2PL0 Copyright (c) Steve Scherf et al.
# Submitted via: CDex 1.79
#
DISCID=fe130212
DTITLE=Michael Spors Trio and Ulrich Walther - JAZZ.SPORS.BACH Trio Sonatas
DYEAR=2018
DGENRE=Jazz
TTITLE0=Sonata C minor. I. Non vivave
TTITLE1=Sonata C minor. II. Largo
TTITLE2=Sonata C minor. III. Allegro (in rock)
TTITLE3=Sonata C major BWV 529. I. Allegro
TTITLE4=Sonata C major BWV 529. II. Largo
TTITLE5=Sonata C major BWV 529. III. Allegro
TTITLE6=Sonata D minor BWV 527. I. Andante
TTITLE7=Sonata D minor BWV 527. II. Adagio e dolce
TTITLE8=Sonata D minor BWV 527. III. Allegro
TTITLE9=Sonata D minor. I. Andante (or not)
TTITLE10=Sonata D minor. II. Adagio e dolcissimo (or not)
TTITLE11=Sonata D minor. III. Danse macabre
TTITLE12=Sonata C minor BWV 526. I. Vivace
TTITLE13=Sonata C minor BWV 526. II. Largo
TTITLE14=Sonata C minor BWV 526. III. Allegro
TTITLE15=Sonata C major. I. Allegro
TTITLE16=Sonata C major. II. Largo
TTITLE17=Sonata C major. III. Vivace
EXTD=YEAR: 2018
EXTT0=
EXTT1=
EXTT2=
EXTT3=
EXTT4=
EXTT5=
EXTT6=
EXTT7=
EXTT8=
EXTT9=
EXTT10=
EXTT11=
EXTT12=
EXTT13=
EXTT14=
EXTT15=
EXTT16=
EXTT17=
PLAYORDER=
